HIERARCHY
ROOT Hips
{
    OFFSET 0.0 0.0 0.0
    CHANNELS 6 Xposition Yposition Zposition Zrotation Xrotation Yrotation
    JOINT LHipJoint
    {
        OFFSET 0.1 0.0 0.0
        CHANNELS 3 Zrotation Xrotation Yrotation
        JOINT LeftHip
        {
            OFFSET 0.11000192165374756 0.0 0.0
            CHANNELS 3 Zrotation Xrotation Yrotation
            JOINT LeftKnee
            {
                OFFSET 0.0 0.0 -0.4222407639026642
                CHANNELS 3 Zrotation Xrotation Yrotation
                JOINT LeftAnkle
                {
                    OFFSET 0.0 0.0 -0.4368409514427185
                    CHANNELS 3 Zrotation Xrotation Yrotation
                    End Site
                    {
                        OFFSET 0.0 -0.1 0.0
                    }
                }
            }
        }
    }
    JOINT lowerback
    {
        OFFSET 0.0 0.0 0.1
        CHANNELS 3 Zrotation Xrotation Yrotation
        JOINT Chest
        {
            OFFSET 0.0 0.0 0.2306453287601471
            CHANNELS 3 Zrotation Xrotation Yrotation
            JOINT Chest2
            {
                OFFSET 0.0 0.0 0.256412148475647
                CHANNELS 3 Zrotation Xrotation Yrotation
                JOINT LeftCollar
                {
                    OFFSET 0.1 0.0 0.0
                    CHANNELS 3 Zrotation Xrotation Yrotation
                    JOINT LeftShoulder
                    {
                        OFFSET 0.13319158554077148 0.0 0.0
                        CHANNELS 3 Zrotation Xrotation Yrotation
                        JOINT LeftElbow
                        {
                            OFFSET 0.26294779777526855 0.0 0.0
                            CHANNELS 3 Zrotation Xrotation Yrotation
                            JOINT LeftWrist
                            {
                                OFFSET 0.2235489934682846 0.0 0.0
                                CHANNELS 3 Zrotation Xrotation Yrotation
                                End Site
                                {
                                    OFFSET 0.1 0.0 0.0
                                }
                            }
                        }
                    }
                }
                JOINT Neck
                {
                    OFFSET 0.0 0.0 0.1
                    CHANNELS 3 Zrotation Xrotation Yrotation
                    JOINT Head
                    {
                        OFFSET 0.0 0.0 0.11135430634021759
                        CHANNELS 3 Zrotation Xrotation Yrotation
                        End Site
                        {
                            OFFSET 0.0 0.0 0.11683301627635956
                        }
                    }
                }
                JOINT RightCollar
                {
                    OFFSET -0.1 0.0 0.0
                    CHANNELS 3 Zrotation Xrotation Yrotation
                    JOINT RightShoulder
                    {
                        OFFSET -0.13319158554077148 0.0 0.0
                        CHANNELS 3 Zrotation Xrotation Yrotation
                        JOINT RightElbow
                        {
                            OFFSET -0.26294779777526855 0.0 0.0
                            CHANNELS 3 Zrotation Xrotation Yrotation
                            JOINT RightWrist
                            {
                                OFFSET -0.2235489934682846 0.0 0.0
                                CHANNELS 3 Zrotation Xrotation Yrotation
                                End Site
                                {
                                    OFFSET -0.1 0.0 0.0
                                }
                            }
                        }
                    }
                }
            }
        }
    }
    JOINT RHipJoint
    {
        OFFSET -0.1 0.0 0.0
        CHANNELS 3 Zrotation Xrotation Yrotation
        JOINT RightHip
        {
            OFFSET -0.11000192165374756 0.0 0.0
            CHANNELS 3 Zrotation Xrotation Yrotation
            JOINT RightKnee
            {
                OFFSET 0.0 0.0 -0.4222407639026642
                CHANNELS 3 Zrotation Xrotation Yrotation
                JOINT RightAnkle
                {
                    OFFSET 0.0 0.0 -0.4368409514427185
                    CHANNELS 3 Zrotation Xrotation Yrotation
                    End Site
                    {
                        OFFSET 0.0 -0.1 0.0
                    }
                }
            }
        }
    }
}
MOTION
Frames: 7
Frame Time: 0.03333333333333333
-1.6500330275448505e-06 0.866614818572998 -5.387833880377002e-06 -98.05472897377129 -45.794809770565145 -100.62332779756909 -6.361109362927033e-15 0.0 0.0 -0.05575876593887663 -1.459886649958313 4.095936476158858 1.279062557168603 11.353770248719899 0.5553116379335334 -3.1805546814635168e-15 8.827812596100317e-32 -3.1805546814635168e-15 -6.361109362927033e-15 0.0 0.0 0.35644437471739104 8.956750062828023 4.088126528051799 -1.7069227530048356 2.528786831590831e-06 1.4196097212723195e-06 3.1805546814635168e-15 -1.5902773407317584e-15 3.1805546814635168e-15 -28.625753229037223 9.123371772306037 71.97007100614933 -33.25548851338459 3.7816901887448614e-06 2.9173645363398017e-07 0.0 0.0 0.0 3.1805546814635168e-15 -1.5902773407317584e-15 3.1805546814635168e-15 1.3308114213870927 -2.672111441422627 -8.916764505754617 3.1805546814635168e-15 -1.5902773407317584e-15 3.1805546814635168e-15 5.079029257274431 -14.458482732025638 -54.19683008127324 139.75847655266827 -1.2764840885000366e-06 -2.1538626313297414e-06 1.987846675914698e-15 3.1805546814635168e-15 -5.517382872562698e-32 -6.361109362927033e-15 0.0 0.0 -0.052184458835719864 -1.2755633211151178 -4.650751684904995 -0.46111887368660825 10.976073807646 -0.3037121947847291 0.0 0.0 0.0
-1.8424816516926512e-06 0.8666151762008667 -5.451149263535626e-06 -97.8079117117744 -45.90994022438282 -100.4347683008477 0.0 0.0 -3.1805546814635168e-15 -0.07253715866498363 -1.862327179379948 3.9294817015822048 1.281850362759353 11.623514287603614 0.9168818633884412 3.1805546814635176e-15 -6.361109362927035e-15 1.7655625192200634e-31 0.0 0.0 -3.1805546814635168e-15 0.3517445764114377 8.728270173222501 4.238558205028459 -1.5899489115559502 5.638431468741969e-07 -3.1303238504160415e-07 0.0 0.0 0.0 -28.476187175841805 9.031435052628119 71.85875444164829 -33.14455317818945 1.082623757647951e-07 1.8971521071284219e-06 0.0 0.0 0.0 0.0 0.0 0.0 0.7570914382403732 -2.55064407726839 -8.869268200502823 0.0 0.0 0.0 7.672289869280123 -12.607433994315972 -53.95220202234187 140.23022995555488 2.385680924880406e-06 4.3911019682638434e-07 -5.9635400277440935e-15 0.0 0.0 0.0 0.0 -3.1805546814635168e-15 -0.07022978808692538 -1.7080006827621932 -4.792569018651121 -0.5036787256599231 11.437762270556405 -0.1643587979662832 -3.1805546814635168e-15 -5.565970692561154e-15 -3.1805546814635168e-15
-1.7446986930735875e-06 0.8666151762008667 -5.48127900401596e-06 -97.81672548012476 -45.708341225509024 -100.29670911417611 -9.54166404439055e-15 2.648343778830095e-31 -3.1805546814635168e-15 -0.07787155710351117 -1.9090838442546847 3.7852289837975817 1.290875150917564 11.776351504917653 0.938251372933501 -6.3611093629270335e-15 0.0 0.0 -9.54166404439055e-15 2.648343778830095e-31 -3.1805546814635168e-15 0.3693122506391957 8.762350247156634 4.06473869036207 -1.6097824850780509 3.7577832489746e-08 4.4806888171667254e-07 3.1805546814635168e-15 6.3611093629270335e-15 -1.7655625192200634e-31 -28.209287011312917 8.63529912391507 71.86454577211278 -33.257352584961836 3.381151645866896e-06 6.657715883625801e-07 6.3611093629270335e-15 1.5902773407317584e-15 -8.827812596100317e-32 3.1805546814635168e-15 6.3611093629270335e-15 -1.7655625192200634e-31 0.6244599788282965 -2.534466157427879 -8.451420211056812 3.1805546814635168e-15 6.3611093629270335e-15 -1.7655625192200634e-31 7.998339119994089 -12.7512668442102 -53.73662421892521 140.61726131917308 1.3321036794429949e-06 1.5207143836291452e-06 -3.975693351829395e-16 0.0 0.0 -9.54166404439055e-15 2.648343778830095e-31 -3.1805546814635168e-15 -0.07795172187409817 -1.81623202971212 -4.923183912517263 -0.5171241578745394 11.618115259124025 -0.21271119274088524 -2.648343778830095e-31 -4.770832022195275e-15 -6.3611093629270335e-15
-1.4446909517573658e-06 0.8666149377822876 -5.529907866730355e-06 -97.79830483740847 -45.48226443360146 -100.25841270597057 9.541664044390549e-15 0.0 0.0 -0.0689532362609833 -1.687945575128415 3.802523921954315 1.2905005641708498 11.730475491228074 0.9950580331798242 0.0 -6.361109362927033e-15 0.0 9.541664044390549e-15 0.0 0.0 0.37006263187583327 8.75958277198331 4.039733339795039 -1.794408098861239 -6.557906863667776e-07 -3.8666766060617817e-07 6.361109362927033e-15 -1.7655625192200634e-31 -3.1805546814635164e-15 -28.27383790712347 8.636285625513313 71.6968196253068 -33.829841311087584 2.8593778715694628e-06 3.5153830665651875e-07 0.0 1.5902773407317584e-15 0.0 6.361109362927033e-15 -1.7655625192200634e-31 -3.1805546814635164e-15 -0.1071667190874147 -2.619265400031515 -8.182624771622146 6.361109362927033e-15 -1.7655625192200634e-31 -3.1805546814635164e-15 5.390892638974635 -14.526902055327719 -53.98536478982522 139.91316831940108 7.340569626787281e-06 1.2296194509868502e-06 -5.9635400277440935e-15 -6.3611093629270335e-15 -3.3104297235376187e-31 9.541664044390549e-15 0.0 0.0 -0.07490635728952656 -1.7424949649101593 -4.862689150342661 -0.4921679676777038 11.362133372423004 -0.36014717368986343 3.1805546814635168e-15 4.770832022195275e-15 3.1805546814635168e-15
-1.5303353393392172e-06 0.866614580154419 -5.63051798962988e-06 -97.88911130789594 -45.7054748613917 -100.22652903536154 -3.1805546814635168e-15 0.0 0.0 -0.056117912939689894 -1.3613627340930816 3.7279286068503117 1.2754041085274828 11.677633763572949 1.1895370870431223 6.3611093629270335e-15 1.7655625192200634e-31 3.1805546814635168e-15 -3.1805546814635168e-15 0.0 0.0 0.37405557225110486 8.740614981510262 3.838776751151126 -1.8052823188989728 5.842589607461321e-07 7.502798209797574e-07 -2.648343778830095e-31 -4.770832022195275e-15 -6.3611093629270335e-15 -28.796225480992465 8.887617258634144 71.87747184685615 -33.99346279897477 -3.4866371541193987e-06 1.7435269956201991e-06 0.0 0.0 0.0 -2.648343778830095e-31 -4.770832022195275e-15 -6.3611093629270335e-15 -0.141388768792572 -2.6275240716763912 -8.232819029831983 -2.648343778830095e-31 -4.770832022195275e-15 -6.3611093629270335e-15 -0.8571513364855937 -17.778138443057333 -55.55153855765941 138.08681342956174 -1.7292139123333822e-06 -1.3166395376880423e-06 -4.373262687012335e-15 0.0 0.0 -3.1805546814635168e-15 0.0 0.0 -0.0670185249907493 -1.5368124634522766 -4.977135926279295 -0.5070126586757222 11.318314459843926 -0.388280266021972 -6.3611093629270335e-15 -7.951386703658792e-15 -4.413906298050159e-31
-1.922985575220082e-06 0.8666142821311951 -5.719472028431483e-06 -97.93345178702734 -45.8969431633041 -100.36130381903905 3.1805546814635168e-15 -8.827812596100317e-32 -3.1805546814635168e-15 -0.07530412445818338 -1.7992740124898918 3.8061464554496163 1.354170323778447 12.177554772622647 1.036649216329361 0.0 0.0 -6.3611093629270335e-15 3.1805546814635168e-15 -8.827812596100317e-32 -3.1805546814635168e-15 0.3789938057295764 8.768294643344662 3.9000586917800475 -2.0814347543827743 2.1195003048842635e-06 5.473210856864076e-07 0.0 0.0 0.0 -28.686533322076055 8.647103539502764 72.02808695193812 -33.389282676454364 1.1615881077583179e-06 2.453178997713619e-06 -6.3611093629270335e-15 -7.951386703658792e-16 -4.4139062980501586e-32 0.0 0.0 0.0 -0.1733862790692511 -3.0844844441631953 -8.42060153320324 0.0 0.0 0.0 -6.951843783222738 -20.445468123329423 -57.67850749428141 136.00234102562763 8.011136628882132e-07 6.131067610991153e-06 8.348956038841732e-15 2.3173008064763334e-31 3.1805546814635168e-15 3.1805546814635168e-15 -8.827812596100317e-32 -3.1805546814635168e-15 -0.09197125392846134 -2.0982095555991624 -5.043439868543361 -0.5327481853170096 11.6904755603759 -0.24432758221998335 3.1805546814635176e-15 -8.827812596100317e-32 -3.1805546814635176e-15
-2.1861533241462894e-06 0.8666133284568787 -5.660313036059961e-06 -97.77043297755526 -45.90156182493162 -100.24928396525395 -3.1805546814635164e-15 0.0 0.0 -0.10937081680683979 -2.4299514224227172 3.556606173535114 1.395133328460473 12.691014832628682 1.2720251229760946 -3.1805546814635168e-15 -8.827812596100317e-32 3.1805546814635168e-15 -3.1805546814635164e-15 0.0 0.0 0.3930426251333815 8.511406970839165 3.915128772872225 -2.129262833109563 -3.733667028071672e-07 -7.006643348627335e-07 3.1805546814635168e-15 -6.3611093629270335e-15 1.7655625192200634e-31 -29.162916768150833 8.746012280611778 72.24776168342525 -32.56197938900096 -4.444489179373164e-06 -2.8863771675134585e-06 6.3611093629270335e-15 0.0 0.0 3.1805546814635168e-15 -6.3611093629270335e-15 1.7655625192200634e-31 0.6727998207324837 -2.921284387373509 -8.20451765513212 3.1805546814635168e-15 -6.3611093629270335e-15 1.7655625192200634e-31 -12.68915185974526 -21.63531339863502 -60.04413683938091 132.71070917772366 8.974850842023138e-07 4.570092101161164e-06 -3.180554681463516e-15 1.7655625192200634e-31 -6.361109362927032e-15 -3.1805546814635164e-15 0.0 0.0 -0.12254455892628754 -2.625256845336872 -5.259032501852401 -0.5694577233225235 12.258842285457412 -0.04445939934951971 -3.1805546814635168e-15 0.0 0.0
